<?xml version="1.0" encoding="utf-8"?>
<!-- Generator: Adobe Illustrator 24.0.1, SVG Export Plug-In . SVG Version: 6.00 Build 0)  -->
<svg version="1.1" xmlns="http://www.w3.org/2000/svg" xmlns:xlink="http://www.w3.org/1999/xlink" x="0px" y="0px"
	 viewBox="0 0 318.3 319.1" style="enable-background:new 0 0 318.3 319.1;" xml:space="preserve">
<style type="text/css">
	.st0{display:none;}
	.st1{display:inline;}
	.st2{fill:none;}
</style>
<g id="Tekst" class="st0">
	<path class="st1" d="M204.2,173.1l-3.1,16.4c-2.8,14.3-3.8,19.7-25.5,19.7h-0.3c-17.6,0-19.8-1.9-19.8-16.7V85.1H91.5l3.5,19.4
		l13,2.4c4.5,0.9,9.7,3.6,9.7,17.3l3.7,110.8h96l8.6-61.9H204.2z M210.3,226.8h-81l-3.4-102.7c0-14.7-5.5-23.2-16.4-25.2l-7.5-1.4
		l-0.8-4.2h46v99.1c0,17.6,3.9,24.9,28,24.9h0.3c25.8,0,30-8,33.5-26.3l1.9-9.7h5.6L210.3,226.8z"/>
	<path class="st1" d="M159.3,39.4C93.4,39.4,39.8,93,39.8,158.9s53.6,119.5,119.5,119.5s119.5-53.6,119.5-119.5
		S225.2,39.4,159.3,39.4z M159.3,268.8c-60.6,0-109.9-49.3-109.9-109.9C49.4,98.3,98.7,49,159.3,49c60.6,0,109.9,49.3,109.9,109.9
		C269.2,219.5,219.9,268.8,159.3,268.8z"/>
	<g class="st1">
		<path id="SVGID_x5F_1_x5F_" class="st2" d="M208.1,21.1c76.1,26.9,115.9,110.5,89,186.6c-26.9,76.1-110.5,115.9-186.6,89
			c-76.1-26.9-115.9-110.5-89-186.6S132-5.9,208.1,21.1z"/>
		<text>		<textPath  xlink:href="#SVGID_x5F_1_x5F_" startOffset="96.0537%">
<tspan  style="font-family:'DIN-Bold'; font-size:36.7819px; letter-spacing:80;">GODKJENT LÆREBEDRIFT</tspan>		</textPath>
</text>
		<path id="SVGID_x5F_2_x5F_" class="st2" d="M209.7,21.7c75.8,27.8,114.6,111.8,86.8,187.6c-27.8,75.8-111.8,114.6-187.6,86.8
			S-5.7,184.2,22.1,108.5S134-6.2,209.7,21.7z"/>
		<text>		<textPath  xlink:href="#SVGID_x5F_2_x5F_" startOffset="96.0537%">
<tspan  style="font-family:'DIN-Bold'; font-size:36.7819px; letter-spacing:80;"> </tspan><tspan  style="fill:none;stroke:#000000;stroke-width:3.5159; font-family:'DIN-Bold'; font-size:36.7819px; letter-spacing:80;">•</tspan><tspan  style="font-family:'DIN-Bold'; font-size:36.7819px; letter-spacing:80;"> VI HAR LÆRLING </tspan><tspan  style="fill:none;stroke:#000000;stroke-width:3.5159; font-family:'DIN-Bold'; font-size:36.7819px; letter-spacing:80;">•</tspan><tspan  style="font-family:'DIN-Bold'; font-size:36.7819px; letter-spacing:80;"> </tspan>		</textPath>
</text>
	</g>
</g>
<g id="Outline">
	<path d="M204.2,173.1l-3.1,16.4c-2.8,14.3-3.8,19.7-25.5,19.7h-0.3c-17.6,0-19.8-1.9-19.8-16.7V85.1H91.5l3.5,19.4l13,2.4
		c4.5,0.9,9.7,3.6,9.7,17.3l3.7,110.8h96l8.6-61.9H204.2z M210.3,226.8h-81l-3.4-102.7c0-14.7-5.5-23.2-16.4-25.2l-7.5-1.4l-0.8-4.2
		h46v99.1c0,17.6,3.9,24.9,28,24.9h0.3c25.8,0,30-8,33.5-26.3l1.9-9.7h5.6L210.3,226.8z"/>
	<path d="M159.3,39.4C93.4,39.4,39.8,93,39.8,158.9s53.6,119.5,119.5,119.5s119.5-53.6,119.5-119.5S225.2,39.4,159.3,39.4z
		 M159.3,268.8c-60.6,0-109.9-49.3-109.9-109.9C49.4,98.3,98.7,49,159.3,49c60.6,0,109.9,49.3,109.9,109.9
		C269.2,219.5,219.9,268.8,159.3,268.8z"/>
	<g>
		<g>
			<path d="M2.6,158.2c-2.1-2.2-2.7-4.7-2.6-7.5c0.1-2.9,1.3-5.2,3.2-6.9c2.8-2.5,6-2.3,10.6-2c4.5,0.2,7.8,0.3,10.3,3.1
				c1.7,1.9,2.7,4.3,2.5,7.2c-0.3,6.1-4.4,8.9-8.9,9.4l0.3-5.1c2.5-0.5,3.9-1.9,4.1-4.5c0.1-1.4-0.4-2.6-1.2-3.3
				c-1.1-1-2.3-1.4-7.3-1.6c-5-0.3-6.3-0.1-7.4,0.9c-0.9,0.7-1.5,1.8-1.5,3.2c-0.1,1.5,0.4,2.8,1.3,3.7c0.9,0.9,2.1,1.3,3.4,1.4
				l1,0.1l0.2-4.8l4.3,0.2l-0.5,9.9l-3.8-0.2C6.7,160.9,4.4,160.2,2.6,158.2z"/>
			<path d="M5,186.5c-2.1-1.6-3.4-3.7-3.8-6.6c-0.4-3,0.3-5.3,1.9-7.4c2.3-3,5.5-3.3,10-3.9c4.5-0.6,7.7-1.1,10.7,1.2
				c2.1,1.6,3.4,3.7,3.8,6.7c0.4,3-0.3,5.3-1.9,7.4c-2.3,3-5.5,3.4-10,4C11.2,188.3,8,188.8,5,186.5z M22.1,180.4
				c0.7-0.8,1.1-2,1-3.4s-0.9-2.5-1.8-3.1c-1.2-0.8-2.5-0.9-7.5-0.3c-5,0.7-6.2,1.1-7.1,2.2c-0.7,0.8-1.1,2.1-0.9,3.5
				c0.2,1.4,0.9,2.4,1.8,3.1c1.2,0.8,2.5,1,7.5,0.3C20,182,21.2,181.6,22.1,180.4z"/>
			<path d="M12.6,214.6c-2.2-1.1-3.7-3.2-4.5-5.8l-2.9-9l24.9-8.2l2.9,9c0.8,2.6,0.9,5.2-0.2,7.4c-1.9,3.7-5.4,4.6-9.1,5.8
				S16.3,216.5,12.6,214.6z M28.1,205.7c0.7-1.2,0.9-2.5,0.3-4.1l-1.2-3.7l-16.2,5.3l1.2,3.7c0.6,1.7,1.4,2.6,2.7,3.1
				c1.4,0.5,3.2,0.1,7-1.1C25.8,207.7,27.3,207,28.1,205.7z"/>
			<path d="M22.7,240.9l7.2-11.6l-5.2-1l-6.9,3.8l-2.5-4.5l23-12.6l2.5,4.5l-10,5.5l14.4,2.6l3,5.4l-13.3-2.6l-9.3,15.8L22.7,240.9z
				"/>
			<path d="M32.9,256.2c-1.8-2.2-2.4-4.2-2.1-6.9l4.7,0.6c-0.1,1.2-0.1,2.2,0.9,3.5c1.6,2,3.7,2.3,6.1,0.4L56.2,243l3.2,4
				l-13.8,10.9C41.1,261.5,35.9,260,32.9,256.2z"/>
			<path d="M46.1,271.3l17.6-19.4l12.8,11.6l-3.1,3.4l-9-8.2l-4.1,4.5l7.6,7l-3.1,3.4l-7.6-7l-4.3,4.7l9,8.2l-3.1,3.4L46.1,271.3z"
				/>
			<path d="M80.4,297.3L80,278.2l-8.4,13.7l-4.4-2.7l13.7-22.3l3.9,2.4l0.4,19.1l8.4-13.7l4.4,2.7l-13.7,22.3L80.4,297.3z"/>
			<path d="M111.8,288.1l-7.8,20.2l-4.8-1.9l7.8-20.2l-6.4-2.5l1.7-4.3l17.5,6.8l-1.7,4.3L111.8,288.1z"/>
			<path d="M131.5,315.9l3.4-26l5.1,0.7l-2.8,21.4l11.8,1.5l-0.6,4.5L131.5,315.9z"/>
			<path d="M172.1,317.7l-0.5-5.7l-8.2,0.7l-2.5,6l-5.5,0.5l11.3-27.3l20.2-1.8l0.4,4.5l-12.1,1.1l0.5,6.2l10.3-0.9l0.4,4.5
				l-10.3,0.9l0.6,6.3l12.1-1.1l0.4,4.5L172.1,317.7z M170.2,296.1l-5,12.1l6-0.5L170.2,296.1z"/>
			<path d="M213,308.9l-8.1-8.4l-3.5,1.1l3.2,9.9l-4.9,1.6l-8.1-24.9l9.8-3.2c5.1-1.6,9.2,0.8,10.6,5c1.1,3.5-0.3,6.4-2.4,8l9,8.9
				L213,308.9z M202.6,289.5L198,291l2.1,6.6l4.6-1.5c2.1-0.7,3.1-2.5,2.5-4.4C206.6,289.8,204.7,288.8,202.6,289.5z"/>
			<path d="M227.3,303.1L215,280l15.2-8.1l2.2,4l-10.7,5.7l2.9,5.4l9.1-4.9l2.2,4l-9.1,4.9l3,5.6l10.7-5.7l2.2,4L227.3,303.1z"/>
			<path d="M259.8,282.5l-8.6,6.8l-16.2-20.5l8.2-6.5c4-3.2,8.1-2.8,10.9,0.7c1.8,2.3,1.5,4.9,0.8,6.2c1.7-0.4,4.3-0.4,6.5,2.4
				C264.4,275.4,263.4,279.6,259.8,282.5z M245.7,266.1l-3.9,3.1l3.7,4.7l3.9-3.1c1.7-1.3,1.9-3.1,0.8-4.5
				C249.1,264.9,247.4,264.7,245.7,266.1z M252.6,274.2l-4.2,3.3l4,5l4.2-3.3c1.8-1.4,1.8-3.3,0.7-4.7S254.4,272.8,252.6,274.2z"/>
			<path d="M273.6,270.1L254,252.8l11.4-12.9l3.4,3l-8,9.1l4.6,4.1l6.8-7.8l3.4,3l-6.8,7.8l4.8,4.2l8-9.1l3.4,3L273.6,270.1z"/>
			<path d="M297.4,233.5c0.6,2.4,0,4.9-1.4,7.2l-4.9,8.1l-22.4-13.5l4.9-8.1c1.4-2.3,3.3-4,5.7-4.6c4-1,7,1.1,10.3,3.1
				C292.9,227.8,296.4,229.5,297.4,233.5z M280.5,227.6c-1.4,0.2-2.4,0.9-3.4,2.4l-2,3.3l14.6,8.8l2-3.3c0.9-1.5,1-2.8,0.6-4.1
				c-0.5-1.4-2-2.5-5.5-4.6C283.5,228.1,282,227.4,280.5,227.6z"/>
			<path d="M310.3,209.9l-11.6,1.1l-1.3,3.4l9.8,3.6l-1.8,4.8l-24.5-9.1l3.6-9.6c1.9-5,6.4-6.7,10.5-5.2c3.4,1.3,4.8,4.2,4.8,6.9
				l12.6-1.5L310.3,209.9z M288.6,206.1l-1.7,4.5l6.5,2.4l1.7-4.5c0.8-2.1,0-4-1.9-4.7C291.3,203.1,289.4,204,288.6,206.1z"/>
			<path d="M314.3,195.5l-25.6-5.7l1.1-5l25.6,5.7L314.3,195.5z"/>
			<path d="M296.3,173l6.4,0.5l0.9-10.3l4.5,0.4l-0.9,10.3l10.6,0.9l-0.4,5.1l-26.1-2.2l1.4-17.2l4.5,0.4L296.3,173z"/>
			<path d="M296.3,145l21.6-1.8l0.4,5.1l-21.6,1.8l0.6,6.8l-4.5,0.4l-1.6-18.7l4.5-0.4L296.3,145z"/>
		</g>
		<g>
			<path d="M22.1,112.3c-0.5-1-1.4-1.7-2.5-2.1c-0.4-0.1-0.8-0.2-1.3-0.2c-1.9,0-3.5,1.2-4.1,3c-0.3,1.1-0.2,2.2,0.3,3.2
				c0.5,1,1.4,1.7,2.5,2.1c0.4,0.1,0.8,0.2,1.3,0.2c1.9,0,3.5-1.2,4.1-3C22.8,114.4,22.7,113.3,22.1,112.3z"/>
			<path d="M45.8,89.4l-1.9,3.3l-26.9-5.9l2.7-4.6L37,86.4l-12-13.2l2.7-4.6L45.8,89.4z"/>
			<path d="M53.1,78.6L32.5,62.4l3.2-4l20.6,16.2L53.1,78.6z"/>
			<path d="M79,52.7l-6.9-8.5l-6.9,5.6l6.9,8.5l-4,3.2L51.6,41.1l4-3.2l6.7,8.3l6.9-5.6l-6.7-8.3l4-3.2l16.5,20.4L79,52.7z"/>
			<path d="M101.6,38.8l-3.6-3.3l-8.2,4.4l0.8,4.8L86,47.2l-4-27.6l3.5-1.9l20.8,18.5L101.6,38.8z M87.5,25.5l1.6,10l5.7-3.1
				L87.5,25.5z"/>
			<path d="M123.2,30.7l-8.1-8.4l-3.5,1.1l3.2,9.9L110,35l-8.1-24.9l9.8-3.2c5.1-1.6,9.2,0.9,10.6,5c1.1,3.5-0.3,6.4-2.4,8l9,8.9
				L123.2,30.7z M112.8,11.3l-4.6,1.5l2.1,6.6l4.6-1.5c2.1-0.7,3.1-2.5,2.5-4.4C116.7,11.6,114.9,10.7,112.8,11.3z"/>
			<path d="M144,26.4l-1.6-26.1l5.1-0.3l1.3,21.6l11.9-0.7l0.3,4.6L144,26.4z"/>
			<path d="M179,27.2l0.9-5.7l-8.2-1.3l-3.8,5.2l-5.4-0.9l17.6-23.7l20,3.2l-0.7,4.5l-12-1.9l-1,6.1l10.2,1.6l-0.7,4.5l-10.2-1.6
				l-1,6.2l12,1.9l-0.7,4.5L179,27.2z M182.4,5.9l-7.8,10.5l6,1L182.4,5.9z"/>
			<path d="M213.6,37.3l-0.8-11.6l-3.4-1.4l-3.9,9.7l-4.7-1.9l9.8-24.3l9.5,3.8c4.9,2,6.5,6.5,4.9,10.6c-1.4,3.4-4.3,4.7-7,4.6
				l1.2,12.7L213.6,37.3z M217.9,15.7l-4.5-1.8l-2.6,6.4l4.5,1.8c2.1,0.8,4,0.1,4.7-1.8C220.8,18.4,220,16.5,217.9,15.7z"/>
			<path d="M223.3,41.9l13.8-22.2l4.3,2.7l-11.4,18.4l10.1,6.3l-2.4,3.9L223.3,41.9z"/>
			<path d="M241.9,54.4l16.6-20.2l3.9,3.2l-16.6,20.2L241.9,54.4z"/>
			<path d="M261.7,73.7l5-18.5L254.8,66l-3.4-3.8l19.4-17.5l3.1,3.4l-5,18.4l11.9-10.7l3.4,3.8l-19.4,17.5L261.7,73.7z"/>
			<path d="M279.3,94.8c-2.9-0.7-4.9-2.4-6.4-4.8c-1.5-2.5-1.8-5-1.2-7.5c0.9-3.6,3.7-5.3,7.6-7.6c3.9-2.3,6.6-4.1,10.3-3.2
				c2.5,0.6,4.6,2,6.1,4.6c3.1,5.2,1.3,9.9-2.1,12.8l-2.7-4.4c1.8-1.8,2.2-3.8,0.8-6c-0.7-1.2-1.8-1.9-2.9-2.1
				c-1.5-0.3-2.6,0.1-6.9,2.7c-4.3,2.6-5.2,3.5-5.7,4.9c-0.3,1.1-0.2,2.3,0.5,3.5c0.8,1.3,1.9,2.1,3.1,2.4c1.3,0.2,2.4-0.1,3.6-0.8
				l0.9-0.5l-2.5-4.1l3.7-2.2l5.1,8.5l-3.3,2C284.2,94.8,281.9,95.4,279.3,94.8z"/>
			<path d="M304.3,113c-0.6-1.8-2.2-3-4.1-3c-0.4,0-0.9,0.1-1.3,0.2c-1.1,0.3-2,1.1-2.5,2.1c-0.5,1-0.6,2.2-0.3,3.2
				c0.6,1.8,2.2,3,4.1,3c0.4,0,0.9-0.1,1.3-0.2c1.1-0.3,2-1.1,2.5-2.1C304.6,115.2,304.7,114.1,304.3,113z"/>
		</g>
	</g>
</g>
</svg>
