<?xml version="1.0" encoding="utf-8"?>
<!-- Generator: Adobe Illustrator 24.0.1, SVG Export Plug-In . SVG Version: 6.00 Build 0)  -->
<svg version="1.1" id="Gotham_Black__x2B_10_x2F_8" xmlns="http://www.w3.org/2000/svg" xmlns:xlink="http://www.w3.org/1999/xlink"
	 x="0px" y="0px" viewBox="0 0 533.1 533.1" style="enable-background:new 0 0 533.1 533.1;" xml:space="preserve">
<g>
	<g>
		<path d="M266.5,383.1c70.2,0,127.3-57.1,127.3-127.3c0-70.2-57.1-127.3-127.3-127.3s-127.3,57.1-127.3,127.3
			C139.2,326,196.3,383.1,266.5,383.1z M266.5,138.5c64.7,0,117.3,52.6,117.3,117.3s-52.6,117.3-117.3,117.3
			c-64.7,0-117.3-52.6-117.3-117.3S201.8,138.5,266.5,138.5z"/>
	</g>
	<g>
		<path d="M254.8,275.6h22v-83.4h20.9v-13.5L276.8,161l-2.5-2.1h-19.5h0l0,4.3h-18.4v29h18.4V275.6z M244.5,184.1v-13h10.4h8h0
			l0-4.3h8.6l5.5,4.6l12.9,10.9v1.8h-12.9h-8v8v75.4h-6v-75.4v-8h-8H244.5z"/>
	</g>
	<g>
		<path d="M318.6,333.9h22v-83.4h20.9v-13.5l-20.9-17.6l-2.5-2.1h-19.5v4.3h-18.4v29h18.4V333.9z M308.2,242.5v-13h10.4h8h0l0-4.3
			h8.6l5.5,4.6l12.9,10.9v1.8h-12.9h-8v8v75.4h-6v-75.4v-8h-8H308.2z"/>
	</g>
	<g>
		<path d="M192.6,333.9h22v-83.4h20.9v-13.5l-20.9-17.6l-2.5-2.1h-19.5v4.3h-18.4v29h18.4V333.9z M182.2,242.5v-13h10.4h8h0l0-4.3
			h8.6l5.5,4.6l12.9,10.9v1.8h-12.9h-8v8v75.4h-6v-75.4v-8h-8H182.2z"/>
	</g>
	<g>
		<path d="M523.7,332.3l-33.8-12.9l-9.4-3.6l-0.3-0.1v0l-10.7-4.1c1.8-6.7,3.4-13.5,4.6-20.5c2-11.5,3-23.3,3-35.4
			c0-116.1-94.4-210.5-210.5-210.5C150.4,45.3,56,139.7,56,255.8c0,12.3,1.1,24.4,3.1,36.2c1.1,6.3,2.5,12.6,4.2,18.7l-9.8,3.7
			l-0.9,0.3l-9.4,3.6L9.4,331.2L0,334.8c0.9,3.2,2,6.4,3,9.5c0.9,2.6,1.8,5.2,2.7,7.8c1.2,3.1,2.4,6.2,3.6,9.3
			c13,31.6,31.8,60.8,56,86.2c1.5,1.6,3.1,3.2,4.7,4.8c0.8,0.8,1.6,1.5,2.4,2.3c0,0,0,0,0,0l0,0l7.8-6.4l0.3-0.2l27.7-22.8
			c43.1,40.4,99.1,62.5,158.4,62.5c59.6,0,115.7-22.3,158.9-62.9l27.6,22.6l0.4,0.4l7.6,6.2l0.2,0.2c0.6-0.6,1.2-1.2,1.9-1.8
			c1.8-1.8,3.5-3.5,5.2-5.3c23.7-25,42.2-53.6,55.1-84.6c1.3-3.1,2.5-6.2,3.7-9.3c1-2.6,1.9-5.2,2.8-7.8c1.1-3.2,2.1-6.3,3-9.5
			L523.7,332.3z M266.5,55.3c110.6,0,200.5,89.9,200.5,200.5c0,5-0.2,10.1-0.6,15c-0.5,7.2-1.5,14.3-2.7,21.3
			c-1,5.4-2.2,10.8-3.6,16l-18.9-7.2v0c0.8-3.2,1.6-6.4,2.2-9.5l-1.7-1.2l0,0L413,269.9c0.4-4.6,0.7-9.3,0.7-14.1
			c0-4.9-0.3-9.8-0.7-14.6l21.6-14c0,0,0,0.1,0,0.1l9.1-5.9c-1.2-6-2.7-12-4.5-18c-2.4-8-5.3-15.6-8.7-23l-2,0l0,0l-35.3,0.5
			c-4.9-8.2-10.5-15.8-16.8-22.9l9.3-24.2c0,0,0,0,0.1,0.1l3.9-10.1c-4.5-4.2-9.2-8.2-14.2-12c-6.6-5-13.5-9.5-20.5-13.5l-1.6,1.2
			l0,0l-28.6,21.4c-8.5-3.6-17.4-6.5-26.6-8.5l-7-25.6c0,0,0.1,0,0.1,0l-2.9-10.4c-6.1-0.7-12.3-1.1-18.5-1.2
			c-8.3-0.1-16.5,0.4-24.5,1.3l-0.6,2l0,0l-10.4,34.4c-9,2.1-17.7,5-26,8.7l-21.2-17c0,0,0,0,0.1,0l-8.5-6.8
			c-5.3,3-10.6,6.3-15.7,9.9c-6.8,4.8-13.1,10-19.1,15.5l0.7,1.9l0,0l11.9,34.1l0.6-0.2c-6.1,6.9-11.5,14.4-16.2,22.3l0,0l-27.5-1.3
			c0,0,0,0,0-0.1l-10.8-0.5c-2.6,5.6-4.8,11.3-6.9,17.3c-2.7,7.9-4.8,15.8-6.3,23.7l1.7,1.2l0,0l23.4,16.3l0,0l6.7,4.6
			c-0.4,4.3-0.6,8.7-0.6,13.2c0,4.6,0.2,9.1,0.6,13.6L98,284.5c0,0,0-0.1,0-0.1l-9.1,6c0.7,3.2,1.4,6.4,2.2,9.7l-18.5,7
			c-1.2-4.7-2.3-9.5-3.2-14.3c-1.3-7-2.3-14-2.8-21.2c-0.4-5.2-0.6-10.5-0.6-15.8C66,145.2,155.9,55.3,266.5,55.3z M130.4,255.8
			c0-6.1,0.4-12.1,1.2-18l-9.2-6.4l0,0l-22-15.3c1.3-5.4,2.8-10.8,4.6-16.1c1.2-3.4,2.4-6.8,3.8-10.1l26.6,1.2l0,0l11,0.5
			c5.8-10.9,13-20.9,21.4-29.7l-2.1-5.9l-10.4-29.8c4.2-3.6,8.6-7.1,13.2-10.3c3-2.1,6-4.1,9-5.9l20.5,16.4l8.6,6.8
			c11-5.4,22.8-9.4,35.3-11.8l1.7-5.5h0l9.1-30.2c5.5-0.5,11.1-0.7,16.8-0.6c3.6,0,7.2,0.2,10.8,0.5l8.5,30.9l1.2,4.5
			c12.6,2.1,24.7,6,35.9,11.4l9-6.7l0,0l20.7-15.4c4.7,2.9,9.3,6,13.9,9.5c2.9,2.2,5.7,4.4,8.4,6.8l-9.1,23.6l0,0l-3.9,10.2
			c8.9,9.1,16.5,19.4,22.6,30.7l36.6-0.5c2.1,5.1,4,10.4,5.6,15.8c1,3.5,2,6.9,2.8,10.4l-30.1,19.5c0.9,6.4,1.4,12.9,1.4,19.6
			c0,6.4-0.4,12.7-1.3,18.8l29.8,21c-0.1,0.5-0.3,1.1-0.4,1.6v0c-0.8,3.2-1.7,6.5-2.7,9.7c-0.5,1.6-1,3.2-1.6,4.8
			c-0.1,0.4-0.3,0.8-0.4,1.2l-21.6-8.7l-9.3-3.7c-1.1,3.2-2.3,6.3-3.6,9.3c-21,48.5-69.3,82.6-125.5,82.6
			c-56.7,0-105.4-34.7-126.1-84c-1.3-3.1-2.5-6.2-3.5-9.4l-9.3,3.7l-22.9,9.2c-0.7-2-1.4-3.9-2-5.9c-0.1-0.2-0.2-0.5-0.2-0.7
			c-0.9-3-1.7-6-2.5-9c-0.1-0.5-0.3-1-0.4-1.4l31.5-20.7C130.9,268.2,130.4,262.1,130.4,255.8z M18.7,357.7
			c-1.3-3.1-2.5-6.2-3.6-9.3c-0.9-2.5-1.8-5-2.7-7.6l33.7-12.8l5.4-2.1l3.9-1.5l6.9-2.6l3.8-1.4l9.4-3.6l18.5-7
			c0.7,2,1.3,4.1,2.1,6.1l-18.4,7.4l-9.3,3.7l-7.3,2.9l-3.3,1.3l-7.3,2.9c-0.2,1.7-0.3,3.4-0.5,5c-0.2,2-0.3,4.1-0.4,6.1l0,0
			c-0.2,3.8-0.3,7.7-0.3,11.6c0,24.5,4,48.4,11.8,70.9C43.3,406.5,29,382.9,18.7,357.7z M76.2,438.7c-10.4-24.2-16.4-50.7-16.8-78.5
			c10.7,21.1,24.7,40.7,41.7,58.1L76.2,438.7z M425,411.5c-0.4,0.4-0.8,0.9-1.3,1.3c-2,2-3.9,3.8-6,5.7
			c-41.2,38.3-94.5,59.3-151,59.3c-56.4,0-109.5-20.9-150.7-59c-2.1-2-4.3-4-6.3-6.1c-0.3-0.3-0.6-0.6-0.9-0.9
			c-20.6-20.8-36.6-45-47.4-71.4l10.6-4.3l9.3-3.7l18.4-7.4l9.8-3.9l22.3-9c22.1,52.9,74.5,90.2,135.3,90.2
			c60.4,0,112.3-36.7,134.8-88.9l20.4,8.2l10.5,4.2l18.6,7.5l9.3,3.7l0,0l11,4.4C460.8,367.3,445.1,391,425,411.5z M457.5,438
			l-24.8-20.2c16.9-17.3,30.7-36.7,41.3-57.7C473.6,387.8,467.7,414.1,457.5,438z M518,349.4c-1.2,3.1-2.4,6.2-3.7,9.3
			c-10.3,24.8-24.4,48.1-42,69c7.8-22.5,11.8-46.4,11.8-70.9c0-4.7-0.2-9.3-0.5-13.9c-0.1-1.2-0.2-2.5-0.3-3.7
			c-0.1-1.3-0.2-2.5-0.3-3.7l-7.8-3.1l-2.8-1.1l-8.2-3.3l0,0l-9.3-3.7l-18.6-7.5c0.2-0.5,0.4-1.1,0.6-1.6c0.5-1.5,1-3,1.5-4.5
			l18.8,7.2l9.3,3.6l4.7,1.8l6.3,2.4l4.5,1.7l4.9,1.9l33.7,12.8C519.8,344.4,518.9,346.9,518,349.4z"/>
	</g>
	<g>
		<g>
			<path d="M114.7,409.4l-11.8-16l21-15.6l-18.6,1.5l-1.8-2.5l6.8-17.3l-20.9,15.5l-11.7-15.8l49.3-36.5l11.7,15.8l-8.8,20.7
				l22.4-2.4l11.7,15.8L114.7,409.4z M109.9,394.5l5.9,7.9l41.2-30.6l-7.1-9.5l-28,3l11-25.9l-7.1-9.5l-41.2,30.6l5.7,7.7l30.9-22.9
				L109.9,374l30.9-2.5L109.9,394.5z"/>
		</g>
		<g>
			<path d="M184,455.1l-42.4-24l30.3-53.4l42,23.9l-9,15.8l-24.8-14.1l-1.8,3.1l22.5,12.8l-8.5,15.1l-22.5-12.8l-1.9,3.4l25.2,14.3
				L184,455.1z M148.4,429.2l33.7,19.1l4.1-7.2L161,426.8l6.9-12.1l22.5,12.8l3.6-6.4l-22.5-12.8l6.7-11.8l24.8,14.1l4-7.1
				l-33.3-18.9L148.4,429.2z"/>
		</g>
		<g>
			<path d="M241.8,469.5c-1.7,0-3.4-0.1-5.2-0.4c-10.3-1.5-19.3-6.4-25.2-13.8l-1.5-1.8l13.3-12.4l1.7,1.9c4.4,4.8,9.3,7.6,14.8,8.4
				c0.6,0.1,3.7,0.5,3.9-0.8l0-0.2c0.1-0.4,0.2-1.2-6.7-4.1c-10.7-4.3-21-9.6-19.1-23.1l0-0.2c0.9-5.8,3.9-10.7,8.5-13.7
				c4.7-3.1,10.8-4.2,17.6-3.2c9.4,1.4,16.7,5.1,22.4,11.4l1.5,1.7l-12.3,13.4l-1.8-1.9c-3.8-3.9-8.3-6.3-12.7-7
				c-1.6-0.2-2.4,0-2.6,0.2c-0.2,0.1-0.3,0.3-0.4,0.5l0,0.2c-0.1,0.5-0.2,1.3,6.9,4.1c10.9,4.2,20.7,9.9,18.8,23l0,0.2
				c-0.9,6.3-4.1,11.2-9.1,14.3C251,468.4,246.7,469.5,241.8,469.5z M216.8,453.9c5.1,5.4,12.3,9,20.5,10.2
				c5.8,0.9,10.9,0.1,14.7-2.2c3.7-2.2,6-5.9,6.7-10.7l0-0.2c1.2-7.9-3.1-12.7-15.7-17.6c-6.5-2.6-10.8-4.6-10.1-9.5l0-0.2
				c0.3-1.9,1.3-3.4,3-4.2c1.5-0.8,3.4-1,5.7-0.7c4.7,0.7,9.5,3,13.6,6.6l5.7-6.2c-4.6-4.4-10.4-7.1-17.8-8.2
				c-5.6-0.8-10.5,0-14.1,2.4c-3.5,2.3-5.6,5.8-6.3,10.3l0,0.2c-1.3,9,4.4,13.1,16,17.7c6.2,2.6,10.5,4.7,9.8,9.4l0,0.2
				c-0.4,3.1-3.2,6-9.6,5c-5.9-0.9-11.3-3.6-16-8.2L216.8,453.9z"/>
		</g>
		<g>
			<path d="M301.7,467.7l-8.8-41.7l-15.7,3.3l-3.9-18.3l51.1-10.8l3.9,18.3l-15.8,3.3l8.8,41.7L301.7,467.7z M296.8,420.1l8.8,41.7
				l9.7-2.1l-8.8-41.7l15.8-3.3l-1.8-8.5l-41.3,8.7l1.8,8.5L296.8,420.1z"/>
		</g>
		<g>
			<path d="M364.3,448.4l-33.7-51.3l40.4-26.5l10,15.2l-23.9,15.7l2,3l21.6-14.2l9.5,14.5l-21.6,14.2l2.2,3.3l24.2-15.9l10,15.3
				L364.3,448.4z M337.6,398.5l28.2,42.9l32.4-21.3l-4.5-6.9l-24.2,15.9l-7.7-11.6l21.6-14.2l-4-6.1l-21.6,14.2l-7.5-11.4l23.9-15.7
				l-4.5-6.9L337.6,398.5z"/>
		</g>
		<g>
			<path d="M427.5,399.7l-50.4-34.9l15.9-23c4.9-7,10.4-11.1,16.6-12c5.3-0.8,10.3,0.5,15.3,4l0.1,0.1c6.6,4.6,9.9,11.1,9.4,18.6
				l25.3,0.7l-13.2,19l-20.2-0.8l-1.6,2.3l14,9.7L427.5,399.7z M384,363.5l42.2,29.2l5.7-8.2l-14-9.7l6-8.6l20.2,0.8l6.4-9.2
				l-21.8-0.6l0.5-2.9c1.3-6.8-1.1-12.5-7-16.5l-0.1-0.1c-3.9-2.7-7.8-3.7-11.7-3.1c-4.8,0.8-9.2,4.1-13.3,9.9L384,363.5z
				 M411.9,370.8l-15.3-10.6l7-10.2c1.8-2.5,3.8-4.2,6.1-4.9c2.5-0.7,5.1-0.3,7.6,1.4l0.1,0.1c4.6,3.2,5.2,8.6,1.6,13.9L411.9,370.8
				z M403.6,358.9l7.1,4.9l4.2-6.1c1.2-1.7,2.7-4.8-0.3-6.9l-0.1-0.1c-1.2-0.8-2.2-1.1-3.3-0.7c-1.1,0.3-2.3,1.3-3.4,2.9
				L403.6,358.9z"/>
		</g>
	</g>
</g>
</svg>
