<svg viewBox="0 0 416 434" fill="none" xmlns="http://www.w3.org/2000/svg">
<path fill-rule="evenodd" clip-rule="evenodd" d="M206.537 92.6523C191.302 92.6523 176.14 94.5502 161.928 99.8826C139.8 108.185 121.096 124.614 108.397 144.615C99.2506 159.019 93.1234 175.226 89.6707 191.922C88.2954 198.573 86.1598 206.295 87.605 213.028C89.2628 220.744 92.3353 227.873 93.5466 235.862C96.5259 255.514 99.9024 275.526 109.176 293.09C119.145 311.974 136.418 327.469 157.085 332.585C165.294 334.617 173.803 335.008 182.268 335.008C182.956 335.008 183.646 335.006 184.334 335C194.475 334.935 204.614 334.464 214.718 333.591C221.573 332.998 228.43 332.218 235.141 330.686C249.207 327.477 262.307 321.052 275.261 314.68C277.3 313.677 279.375 312.648 281.001 311.059C283.697 308.422 284.812 304.615 286.171 301.092C292.471 284.76 305.579 272.125 314.437 257.038C326.12 237.14 329.711 210.97 317.974 191.105C315.616 187.115 312.69 183.43 310.915 179.146C309.108 174.784 308.584 170.015 307.682 165.378C304.595 149.512 296.787 134.606 285.527 123.051C280.892 118.295 275.708 114.113 270.399 110.132C264.051 105.373 257.416 100.838 249.993 98.0631C243.133 95.4991 235.798 94.5123 228.514 93.802C221.236 93.0926 213.879 92.6523 206.537 92.6523ZM206.537 92.6524V93.5527C213.357 93.5527 220.517 93.9272 228.426 94.6979C235.449 95.383 242.883 96.367 249.68 98.9068C257.125 101.69 263.781 106.293 269.862 110.854C274.222 114.123 279.87 118.535 284.885 123.681C295.979 135.065 303.762 149.935 306.802 165.551C307.006 166.602 307.194 167.683 307.377 168.727C308.005 172.319 308.655 176.034 310.088 179.492C311.304 182.431 313.055 185.103 314.748 187.688C315.575 188.95 316.43 190.256 317.203 191.564C322.641 200.768 325.024 211.98 324.094 223.99C323.23 235.163 319.623 246.433 313.665 256.58C310.247 262.401 306.114 267.96 302.117 273.336C295.782 281.856 289.231 290.666 285.335 300.767C285.133 301.291 284.936 301.821 284.739 302.352C283.652 305.28 282.528 308.308 280.374 310.413C278.836 311.919 276.818 312.911 274.866 313.871C262.139 320.132 248.979 326.605 234.942 329.808C227.913 331.413 220.735 332.167 214.641 332.694C204.603 333.562 194.404 334.034 184.328 334.1C183.642 334.106 182.954 334.108 182.267 334.108C174.71 334.108 165.834 333.824 157.3 331.711C138.054 326.947 120.359 312.352 109.968 292.669C101.013 275.709 97.6345 256.847 94.432 235.727C93.7309 231.099 92.4022 226.719 91.1174 222.483C90.167 219.35 89.1844 216.11 88.4815 212.838C87.2729 207.208 88.6984 200.654 89.9563 194.871C90.1607 193.933 90.3616 193.009 90.548 192.105C94.1523 174.681 100.411 158.865 109.152 145.099C122.296 124.399 141.15 108.64 162.241 100.726C175.105 95.8989 189.595 93.5527 206.537 93.5527V92.6524Z" fill="#126F67"/>
<path fill-rule="evenodd" clip-rule="evenodd" d="M72.5974 158.721C80.6667 137.115 96.2854 119.504 113.531 102.551C130.776 85.5971 151.893 72.0516 175.399 66.5545C207.93 58.9445 237.808 55.69 264.468 75.8958C278.417 86.4677 312.811 118.449 337.092 176.727C343.915 193.103 353.259 215.904 350.541 233.444C348.527 246.439 327.925 284.806 322.747 292.862C303.89 322.195 298.442 325.51 268.835 343.813C244.259 359.006 214.903 364.567 186.08 366.034C170.304 366.838 154.284 366.475 139.029 362.359C123.772 358.245 109.227 350.096 99.5848 337.532C84.7274 318.169 83.5224 291.884 75.1796 268.92C69.826 254.184 61.2968 240.11 60.7032 224.434C60.4235 217.033 61.9549 209.698 63.4782 202.452C66.5104 188.023 64.5281 180.328 72.5974 158.721Z" stroke="#126F67"/>
<path fill-rule="evenodd" clip-rule="evenodd" d="M43.0068 219.046C39.3685 199.328 48.7723 164.531 60.8648 139.003C69.8216 120.096 86.4087 98.3608 95.7963 91.2839C135.206 61.5718 171.033 39.0625 237.813 41.8276C247.287 42.2192 256.929 43.6094 265.398 47.8934C274.519 52.5069 281.617 60.2536 288.501 67.8338C298.588 78.9426 308.72 90.1071 316.965 102.657C325.356 115.429 331.677 129.46 339.697 142.47C354.673 166.766 376.46 190.496 374.242 218.99C373.156 232.948 366.242 245.68 362.254 259.095C358.753 270.871 357.504 283.228 354.046 295.018C344.85 326.361 320.321 351.583 291.685 367.053C263.049 382.522 230.501 389.175 198.169 392.581C184.759 393.994 171.173 394.878 157.828 392.944C123.83 388.018 93.343 363.493 81.1081 331.229C78.0153 323.075 75.8468 314.206 70.0142 307.744C64.924 302.103 57.3824 298.733 53.5516 292.163C49.4055 285.052 50.681 276.18 51.2363 267.956C52.7571 245.43 46.5196 238.084 43.0068 219.046Z" stroke="#126F67"/>
<path fill-rule="evenodd" clip-rule="evenodd" d="M47.2589 121.188C65.8145 90.6154 94.0841 67.3926 125.265 50.0383C148.13 37.3123 176.211 30.2891 201.838 25.106C227.464 19.9237 255.448 22.0772 277.619 35.9866C290.278 43.9275 300.433 55.2277 310.41 66.3758C326.314 84.1462 342.268 101.98 355.738 121.676C366.849 137.924 376.296 155.582 381.122 174.689C384.898 189.643 385.775 205.202 385.391 220.624C383.883 281.007 359.711 344.501 308.721 376.519C278.139 395.723 241.305 401.807 205.393 405.156C185.031 407.053 164.393 408.195 144.221 404.826C124.047 401.456 104.181 393.236 89.7965 378.636C71.4677 360.032 63.1973 332.538 42.652 316.44C39.2 313.734 35.4109 311.361 32.6278 307.967C25.731 299.555 26.7083 287.21 29.5416 276.692C30.8516 271.833 29.2744 259.445 28.4298 254.482C16.7737 186.034 32.5041 145.499 47.2589 121.188Z" stroke="#126F67"/>
<path fill-rule="evenodd" clip-rule="evenodd" d="M118.894 216.14C116.64 206.181 113.995 185.598 116.325 175.658C118.524 166.277 125.006 158.599 131.449 151.484C140.872 141.079 150.87 130.856 163.152 124.145C174.395 118.001 187.115 115.061 199.828 113.708C213.219 112.284 227.035 112.595 239.76 117.041C252.484 121.486 266.034 129.751 269.566 142.87C276.175 167.417 285.111 186.364 291.367 198.094C299.597 213.527 294.107 226.847 290.473 234.185C286.005 243.208 270.96 250.757 266.817 261.414C265.209 265.55 264.425 270.07 262.025 273.793C260.224 276.587 257.62 278.752 254.929 280.682C234.316 295.473 200.542 302.559 184.13 300.954C167.718 299.349 155.239 291.075 148.55 287.1C133.089 277.912 133.713 265.197 128.382 249.782C123.445 235.505 122.227 230.868 118.894 216.14Z" stroke="#126F67"/>
<path fill-rule="evenodd" clip-rule="evenodd" d="M149.917 187.601C150.324 175.069 159.749 163.954 170.115 157.072C175.533 153.476 181.696 151.209 187.858 149.182C198.826 145.572 210.611 142.601 221.787 145.478C228.87 147.301 235.168 151.351 241.221 155.491C245.762 158.598 250.416 161.985 252.916 166.917C254.394 169.833 255.018 173.108 255.46 176.354C257.701 192.83 255.514 210.191 247.509 224.72C239.504 239.248 233.431 252.824 215.922 258.725C206.975 261.74 195.262 262.46 185.907 261.254C180.281 260.529 166.799 250.667 163.396 246.079C155.892 235.964 149.223 208.988 149.917 187.601Z" stroke="#126F67"/>
<path fill-rule="evenodd" clip-rule="evenodd" d="M227.983 185.994C227.796 190.467 226.536 200.265 224.264 206.16C222.509 210.715 220.365 215.699 215.936 217.711C213.197 218.956 210.059 218.81 207.057 218.642C200.881 218.293 194.039 217.642 189.868 213.051C187.387 210.32 186.294 206.612 185.521 202.996C184.44 197.937 183.834 192.775 183.714 187.602C183.588 182.11 184.302 175.982 188.448 172.403C191.358 169.891 195.358 169.185 199.151 168.612C203.527 167.952 207.977 167.343 212.362 167.942C216.747 168.54 221.138 170.492 223.736 174.092C225.463 176.486 228.17 181.521 227.983 185.994Z" stroke="#126F67"/>
<path fill-rule="evenodd" clip-rule="evenodd" d="M206.78 198.453C203.183 198.453 201.77 196.222 200.502 193.686C199.235 191.15 199.422 187.824 201.335 185.73C203.427 183.439 207.17 183.113 209.908 184.576C212.645 186.038 214.389 188.978 214.934 192.029C215.097 192.94 215.161 193.896 214.885 194.779C214.259 196.784 210.378 198.453 206.78 198.453Z" stroke="#126F67"/>
<path fill-rule="evenodd" clip-rule="evenodd" d="M5.6932 264.547C10.1933 247.438 1.45536 196.825 6.58839 169.966C11.0644 146.546 29.2502 103.756 35.914 94.9607C41.0238 88.2185 47.5614 82.7337 54.039 77.311C64.2352 68.7754 74.4601 60.2199 85.5605 52.9146C108.523 37.8042 134.651 28.4119 160.536 19.2601C184.051 10.946 207.974 2.63996 232.857 1.19873C257.742 -0.241598 284.141 6.04217 302.048 23.4883C306.848 28.1651 310.944 33.5346 315.787 38.1663C321.98 44.088 329.274 48.6918 336.045 53.9334C376.716 85.4117 395.775 137.187 409.008 187.071C413.004 202.136 416.679 217.8 414.189 233.189C412.031 246.54 405.389 258.674 401.158 271.512C397.588 282.341 395.735 293.684 392.169 304.515C386.599 321.436 377.012 336.677 367.516 351.724C351.424 377.225 334.069 403.907 307.267 417.513C292.268 425.128 275.381 428.026 258.701 430.051C220.564 434.681 181.62 435.208 143.991 427.431C123.434 423.182 102.793 416.142 87.0062 402.227C76.8834 393.303 67.6217 383.229 60.0439 372.037C39.7105 342.013 20.0163 338.41 10.1692 321.295C-3.68483 297.218 1.06506 282.141 5.6932 264.547Z" stroke="#126F67"/>
</svg>
